<?xml version="1.0" encoding="utf-8"?>
<!-- Svg Vector Icons : http://www.onlinewebfonts.com/icon -->
<!DOCTYPE svg PUBLIC "-//W3C//DTD SVG 1.1//EN" "http://www.w3.org/Graphics/SVG/1.1/DTD/svg11.dtd">
<svg version="1.1" xmlns="http://www.w3.org/2000/svg" xmlns:xlink="http://www.w3.org/1999/xlink" x="0px" y="0px" viewBox="0 0 256 256" enable-background="new 0 0 256 256" xml:space="preserve">
<metadata> Svg Vector Icons : http://www.onlinewebfonts.com/icon </metadata>
<g><g><path fill="#000000" d="M59.4,100.9c-7.5-4.3-16.7-8.7-25.2-11.9c-13.5-5.1-15.8-4-16.7-3.6c-1,0.5-3.2,1.5-5.4,14.7c-1.3,8-2.1,17.6-2.1,26.4c-0.1,20.7,3.4,41.9,3.4,42.1c0.2,1.3,1.3,2.2,2.6,2.2c0.1,0,0.3,0,0.4,0c1.4-0.2,2.4-1.6,2.1-3c0-0.2-3.4-21-3.3-41.3c0-17.2,3-33.1,4.7-36.4c3.9,0.2,21.3,6.1,36.9,15.1c15.6,9,26.5,19.9,27.4,21.2c0.9,1.1,2.5,1.3,3.6,0.4c1.1-0.9,1.3-2.5,0.4-3.6C86.4,120.9,74.8,109.8,59.4,100.9z"/><path fill="#000000" d="M57,128.2c-6.1-2.7-11.8-4.7-15.4-5.3c-2-0.3-4.3-0.5-5.2,1.2l-0.2,0.4v0.4c0,0.1,0.1,7.2,0.5,14.3c0.2,4.2,0.4,7.5,0.7,10c0.4,4.2,0.8,5.7,2.3,6.1c0.1,0,0.2,0,0.4,0c0.7,0,1.4-0.5,1.6-1.3c0.1-0.6,0-1.1-0.4-1.5c-0.2-0.6-0.8-3.2-1.3-13.5c-0.3-5.4-0.4-10.9-0.4-13.1c0.7,0,1.8,0.1,3.5,0.6l-0.3,25.4c0,0.5,0.4,1,1,1l0,0c0.5,0,1-0.4,1-1l0.3-24.9c1.2,0.4,2.6,0.8,4.2,1.4l0.2,19.5c0,0.5,0.4,1,1,1l0,0c0.5,0,1-0.4,1-1L51,129.2c0.3,0.1,0.7,0.3,1,0.4c1.1,0.4,2.1,0.8,3,1.3l-0.4,14c0,0.5,0.4,1,0.9,1h0c0.5,0,1-0.4,1-0.9l0.4-13.2c1.2,0.6,2.3,1.1,3.2,1.5l-0.5,7.7c0,0.5,0.4,1,0.9,1c0,0,0,0,0.1,0c0.5,0,0.9-0.4,1-0.9l0.4-6.8c1.2,0.7,2,1.2,2.3,1.5c0.3,0.7,1,1,1.7,0.9c0.9-0.1,1.5-1,1.3-1.9C67.3,134.1,67.1,132.7,57,128.2z"/><path fill="#000000" d="M246,126.6c0-8.8-0.8-18.4-2.1-26.4c-2.2-13.2-4.3-14.2-5.4-14.7c-0.9-0.4-3.2-1.5-16.7,3.6c-8.5,3.2-17.7,7.5-25.2,11.9c-15.5,8.9-27,20.1-28.9,22.4c-0.9,1.1-0.7,2.7,0.4,3.6c1.1,0.9,2.7,0.7,3.6-0.4c1-1.2,11.8-12.2,27.4-21.2c15.6-9,33-14.9,36.9-15.1c1.8,3.3,4.6,19.1,4.7,36.4c0.1,20.3-3.3,41.1-3.3,41.3c-0.2,1.4,0.7,2.7,2.1,3c0.1,0,0.3,0,0.4,0c1.3,0,2.3-0.9,2.6-2.2C242.6,168.5,246.1,147.3,246,126.6z"/><path fill="#000000" d="M214.4,122.9c-3.5,0.6-9.3,2.6-15.4,5.3c-10.1,4.5-10.3,5.9-10.4,6.6c-0.1,0.9,0.5,1.7,1.3,1.9c0.7,0.1,1.4-0.3,1.7-0.9c0.3-0.3,1.1-0.8,2.3-1.5l0.4,6.8c0,0.5,0.5,0.9,1,0.9c0,0,0,0,0.1,0c0.5,0,0.9-0.5,0.9-1l-0.5-7.7c0.9-0.5,2-1,3.2-1.5l0.4,13.2c0,0.5,0.4,0.9,1,0.9h0c0.5,0,1-0.5,0.9-1l-0.4-14c1-0.4,2-0.8,3-1.3c0.4-0.1,0.7-0.3,1-0.4l-0.2,18.8c0,0.5,0.4,1,1,1l0,0c0.5,0,1-0.4,1-1l0.2-19.5c1.6-0.6,3-1.1,4.2-1.4l0.3,24.9c0,0.5,0.4,1,1,1c0,0,0,0,0,0c0.5,0,1-0.4,1-1l-0.3-25.4c1.6-0.4,2.8-0.6,3.5-0.6c0,0,0,0,0,0c0,2.2-0.2,7.7-0.4,13.1c-0.5,10.3-1,12.8-1.3,13.5c-0.4,0.4-0.6,0.9-0.4,1.5c0.2,0.7,0.8,1.3,1.6,1.3c0.1,0,0.2,0,0.4,0c1.4-0.3,1.9-1.9,2.3-6.1c0.3-2.4,0.5-5.8,0.7-10c0.3-7.1,0.5-14.2,0.5-14.3v-0.4l-0.2-0.4C218.7,122.4,216.3,122.5,214.4,122.9z"/></g></g>
</svg>